<svg width="197" height="195" viewBox="0 0 197 195" fill="none" xmlns="http://www.w3.org/2000/svg">
<path d="M87.1695 15.6295L88.6002 30.9629L82.6202 31.5209C81.2767 31.6463 80.1106 31.5415 79.1219 31.2066C78.1332 30.8716 77.3458 30.3264 76.7597 29.571C76.1737 28.8155 75.8288 27.8828 75.7253 26.773C75.6217 25.6631 75.788 24.6828 76.2242 23.8319C76.6617 22.9956 77.3353 22.3214 78.245 21.8094C79.1547 21.2973 80.2813 20.9786 81.6248 20.8532L86.4001 20.4077L85.5084 21.5073L84.979 15.8339L87.1695 15.6295ZM76.918 16.5861L81.3362 21.7861L78.9924 22.0048L74.5304 16.8089L76.918 16.5861ZM85.4879 21.2882L86.5738 22.2696L81.8643 22.709C80.4624 22.8398 79.4316 23.238 78.7719 23.9035C78.0989 24.585 77.8136 25.4733 77.9158 26.5686C78.018 27.6638 78.4621 28.4767 79.2481 29.0073C80.0195 29.5393 81.1062 29.7399 82.5081 29.609L87.2177 29.1696L86.3341 30.3568L85.4879 21.2882Z" fill="black"/>
<path d="M67.3603 18.7133L71.6482 33.5043L69.5352 34.1168L65.2473 19.3259L67.3603 18.7133Z" fill="black"/>
<path d="M53.2914 23.9558L55.921 29.2329L54.8598 28.2377L65.6338 35.0116L63.5269 36.0614L54.4535 30.3328L55.5956 29.7637L54.6857 40.467L52.7363 41.4384L53.7965 28.7676L53.9716 30.2043L51.342 24.9271L53.2914 23.9558Z" fill="black"/>
<path d="M42.0945 29.9834L46.6236 46.271L44.9528 47.6681L29.707 40.3423L31.479 38.8604L45.3439 45.7351L44.6688 46.2996L40.3562 31.437L42.0945 29.9834ZM42.2859 34.8421L42.9593 36.5733L36.3098 42.1338L34.6914 41.1929L42.2859 34.8421Z" fill="black"/>
<path d="M19.6963 53.0401L33.1056 60.6131L30.1521 65.8427C29.4886 67.0176 28.7372 67.9156 27.8981 68.5365C27.0589 69.1574 26.1619 69.4931 25.2071 69.5433C24.2523 69.5936 23.2896 69.3447 22.319 68.7966C21.3484 68.2484 20.6381 67.5525 20.1882 66.7089C19.751 65.8724 19.5753 64.9309 19.6609 63.8845C19.7594 62.8452 20.1404 61.7381 20.8039 60.5632L23.1624 56.3872L23.5759 57.7577L18.6145 54.9557L19.6963 53.0401ZM23.3843 57.6495L24.829 57.3284L22.503 61.447C21.8106 62.673 21.5495 63.7467 21.7197 64.6682C21.8826 65.6024 22.443 66.34 23.4008 66.881C24.3587 67.4219 25.2797 67.5209 26.1639 67.1781C27.0409 66.8481 27.8256 66.07 28.518 64.844L30.844 60.7255L31.315 62.1284L23.3843 57.6495Z" fill="black"/>
<path d="M10.7116 71.1231L25.5498 75.2448L23.9423 81.0317C23.5812 82.3318 23.0681 83.3842 22.4032 84.1889C21.7382 84.9936 20.9484 85.5354 20.0338 85.8141C19.1191 86.0928 18.1248 86.083 17.0508 85.7846C15.9768 85.4863 15.1199 84.9819 14.48 84.2714C13.8543 83.5648 13.4641 82.6953 13.3095 81.6629C13.1548 80.6306 13.258 79.4643 13.6192 78.1642L14.9028 73.5432L15.6129 74.7679L10.1228 73.2429L10.7116 71.1231ZM7.95595 81.0435L14.3882 78.766L13.7581 81.0341L7.31415 83.354L7.95595 81.0435ZM15.4009 74.709L16.7046 74.0436L15.4386 78.6011C15.0618 79.9577 15.0669 81.0627 15.4539 81.9161C15.8512 82.7876 16.5798 83.3705 17.6396 83.6649C18.6995 83.9593 19.6173 83.8337 20.3929 83.2881C21.1647 82.7565 21.739 81.8125 22.1158 80.4558L23.3817 75.8984L24.1767 77.1467L15.4009 74.709Z" fill="black"/>
<path d="M6.40971 88.5064L21.6101 95.9055L21.5496 98.0826L5.96119 104.648L6.02535 102.339L20.3608 96.509L20.3364 97.3887L6.34677 90.7715L6.40971 88.5064ZM10.1757 91.5822L11.9186 92.2249L11.6778 100.89L9.90075 101.478L10.1757 91.5822Z" fill="black"/>
<path d="M7.64332 115.413C7.40806 114.263 7.35552 113.129 7.4857 112.009C7.63024 110.887 7.92095 109.967 8.35782 109.248L10.2022 109.702C9.81691 110.38 9.55019 111.198 9.40204 112.156C9.25388 113.115 9.27832 114.075 9.47535 115.038C9.65474 115.914 9.90089 116.605 10.2138 117.11C10.5267 117.615 10.8821 117.961 11.2798 118.149C11.692 118.334 12.1208 118.381 12.5662 118.29C13.0835 118.184 13.4649 117.927 13.7104 117.517C13.9589 117.122 14.1207 116.632 14.1957 116.048C14.2881 115.475 14.3399 114.851 14.3513 114.175C14.3626 113.499 14.3941 112.811 14.4456 112.112C14.5144 111.424 14.6438 110.776 14.8338 110.169C15.0268 109.575 15.3409 109.062 15.7762 108.628C16.2258 108.192 16.8529 107.892 17.6576 107.727C18.4335 107.568 19.1859 107.624 19.9149 107.894C20.6611 108.175 21.315 108.7 21.8764 109.468C22.4552 110.248 22.8799 111.299 23.1504 112.621C23.3298 113.497 23.3928 114.39 23.3393 115.299C23.2859 116.209 23.1083 117.023 22.8066 117.744L20.9368 117.386C21.2355 116.651 21.4048 115.905 21.4445 115.148C21.4987 114.389 21.4566 113.671 21.3184 112.996C21.1449 112.148 20.8945 111.473 20.5672 110.971C20.2399 110.469 19.8702 110.126 19.4581 109.941C19.0489 109.77 18.6215 109.73 18.1761 109.821C17.6445 109.93 17.2544 110.182 17.0059 110.577C16.7604 110.987 16.5986 111.477 16.5206 112.047C16.4456 112.631 16.3952 113.262 16.3695 113.941C16.3581 114.617 16.3252 115.298 16.2708 115.983C16.2192 116.682 16.097 117.328 15.9041 117.922C15.7141 118.529 15.4014 119.05 14.9662 119.483C14.5309 119.917 13.9181 120.214 13.1278 120.376C12.3663 120.532 11.6124 120.469 10.8661 120.188C10.1343 119.903 9.47747 119.364 8.89576 118.57C8.33135 117.787 7.91388 116.735 7.64332 115.413Z" fill="black"/>
<path d="M10.4054 126.283L27.3106 126.176L28.2216 128.155L17.1595 140.951L16.1933 138.852L26.4584 127.271L26.8265 128.07L11.3532 128.341L10.4054 126.283ZM15.1447 127.37L16.9918 127.174L20.6173 135.047L19.2855 136.363L15.1447 127.37Z" fill="black"/>
<path d="M20.7381 146.345L32.6329 136.564L36.755 141.576C37.7984 142.845 38.4667 144.166 38.7601 145.539C39.0628 146.923 38.9856 148.249 38.5285 149.517C38.0807 150.797 37.2677 151.921 36.0895 152.89C34.9114 153.859 33.6513 154.439 32.3092 154.632C30.9764 154.835 29.6602 154.655 28.3606 154.09C27.0704 153.537 25.9036 152.626 24.8602 151.358L20.7381 146.345ZM23.6138 146.828L26.2548 150.04C27.0652 151.026 27.9508 151.722 28.9115 152.128C29.8815 152.545 30.8638 152.678 31.8582 152.524C32.8639 152.362 33.8086 151.918 34.6922 151.191C35.5872 150.455 36.2058 149.614 36.5481 148.668C36.8904 147.722 36.9504 146.732 36.7281 145.7C36.515 144.679 36.0033 143.676 35.1928 142.69L32.5519 139.478L23.6138 146.828Z" fill="black"/>
<path d="M74.5329 177.712L78.7861 165.852L83.615 167.584C84.8801 168.037 85.8959 168.688 86.6625 169.537C87.4444 170.378 87.9408 171.34 88.1517 172.423C88.3626 173.506 88.2594 174.629 87.8422 175.792C87.425 176.956 86.7909 177.889 85.94 178.591C85.0891 179.293 84.0925 179.725 82.9501 179.889C81.823 180.046 80.6269 179.898 79.3618 179.444L74.5329 177.712ZM76.1756 177.078L79.6829 178.335C80.7334 178.712 81.7156 178.835 82.6295 178.704C83.5588 178.565 84.3677 178.212 85.0562 177.643C85.7487 177.062 86.2651 176.298 86.6053 175.349C86.9496 174.389 87.0368 173.47 86.8668 172.593C86.6968 171.717 86.295 170.935 85.6614 170.249C85.0432 169.555 84.2088 169.02 83.1583 168.644L79.651 167.386L76.1756 177.078Z" fill="black"/>
<path d="M98.7464 184.306C97.7675 184.207 96.9285 183.917 96.2295 183.436C95.5317 182.943 95.0102 182.317 94.6651 181.558C94.3212 180.787 94.1964 179.936 94.291 179.005C94.3855 178.074 94.6661 177.27 95.1328 176.594C95.6114 175.919 96.2175 175.413 96.9512 175.078C97.6979 174.731 98.5071 174.602 99.3786 174.691C100.262 174.781 101.023 175.063 101.663 175.538C102.315 176.002 102.801 176.618 103.122 177.387C103.443 178.143 103.556 178.993 103.46 179.936C103.454 179.996 103.441 180.061 103.422 180.131C103.416 180.191 103.409 180.256 103.402 180.328L95.218 179.497L95.3143 178.548L102.818 179.31L102.278 179.635C102.347 178.954 102.259 178.336 102.014 177.781C101.782 177.215 101.431 176.757 100.959 176.407C100.488 176.058 99.9244 175.85 99.2678 175.783C98.6231 175.718 98.0289 175.808 97.4852 176.055C96.9416 176.301 96.4992 176.678 96.1582 177.186C95.8171 177.695 95.6114 178.295 95.5412 178.987L95.5212 179.184C95.4485 179.901 95.5394 180.549 95.7941 181.13C96.0619 181.7 96.4606 182.168 96.9902 182.536C97.533 182.892 98.1685 183.108 98.8968 183.182C99.4698 183.24 100.011 183.192 100.521 183.039C101.044 182.887 101.505 182.62 101.905 182.239L102.538 183.135C102.069 183.594 101.505 183.923 100.846 184.121C100.198 184.321 99.4986 184.383 98.7464 184.306Z" fill="black"/>
<path d="M114.382 184.564C113.606 184.639 112.861 184.603 112.147 184.456C111.432 184.296 110.861 184.068 110.435 183.772L110.91 182.713C111.32 182.963 111.835 183.166 112.453 183.323C113.07 183.468 113.707 183.508 114.363 183.444C115.259 183.357 115.891 183.157 116.258 182.844C116.624 182.519 116.785 182.124 116.74 181.658C116.706 181.311 116.566 181.054 116.321 180.885C116.086 180.703 115.785 180.581 115.417 180.52C115.048 180.448 114.64 180.397 114.191 180.369C113.742 180.34 113.292 180.299 112.841 180.247C112.401 180.193 111.994 180.094 111.618 179.95C111.241 179.793 110.924 179.565 110.665 179.265C110.419 178.963 110.27 178.544 110.217 178.006C110.167 177.493 110.266 177.019 110.513 176.585C110.76 176.151 111.147 175.794 111.675 175.513C112.213 175.22 112.882 175.034 113.682 174.956C114.291 174.897 114.909 174.921 115.534 175.029C116.158 175.125 116.68 175.286 117.1 175.51L116.644 176.585C116.198 176.339 115.73 176.18 115.241 176.107C114.751 176.022 114.266 176.003 113.789 176.049C112.941 176.132 112.328 176.342 111.951 176.68C111.585 177.005 111.424 177.394 111.468 177.848C111.503 178.207 111.638 178.477 111.872 178.659C112.119 178.84 112.427 178.973 112.797 179.057C113.178 179.129 113.587 179.179 114.024 179.209C114.473 179.238 114.917 179.285 115.358 179.351C115.809 179.403 116.222 179.502 116.598 179.646C116.985 179.777 117.301 179.994 117.547 180.295C117.805 180.584 117.958 180.985 118.008 181.498C118.062 182.048 117.953 182.54 117.682 182.977C117.421 183.4 117.01 183.753 116.447 184.037C115.894 184.308 115.206 184.484 114.382 184.564Z" fill="black"/>
<path d="M125.972 182.646L123.633 173.49L124.872 173.174L127.21 182.33L125.972 182.646ZM123.744 171.307C123.489 171.372 123.251 171.34 123.032 171.21C122.813 171.08 122.673 170.893 122.61 170.649C122.548 170.405 122.583 170.179 122.716 169.972C122.846 169.753 123.039 169.611 123.294 169.545C123.55 169.48 123.786 169.506 124.002 169.625C124.218 169.743 124.357 169.924 124.42 170.168C124.485 170.424 124.453 170.661 124.323 170.88C124.205 171.096 124.012 171.238 123.744 171.307Z" fill="black"/>
<path d="M140.65 181.554C139.865 181.914 139.06 182.145 138.235 182.246C137.41 182.348 136.676 182.288 136.034 182.068L136.218 180.914C136.786 181.089 137.413 181.145 138.097 181.082C138.797 181.025 139.479 180.844 140.145 180.538C141.235 180.038 141.919 179.414 142.197 178.666C142.479 177.929 142.375 177.026 141.885 175.957L140.901 173.814L140.389 172.267L139.599 170.847L138.405 168.246L139.518 167.735L142.979 175.277C143.659 176.76 143.792 178.013 143.376 179.036C142.977 180.064 142.068 180.903 140.65 181.554ZM138.794 178.069C137.976 178.444 137.159 178.608 136.345 178.559C135.525 178.499 134.779 178.241 134.107 177.783C133.446 177.321 132.928 176.681 132.553 175.863C132.177 175.045 132.033 174.24 132.118 173.448C132.21 172.64 132.502 171.912 132.997 171.262C133.491 170.613 134.147 170.101 134.965 169.725C135.728 169.375 136.488 169.218 137.244 169.254C138 169.29 138.701 169.536 139.346 169.993C139.991 170.449 140.519 171.125 140.929 172.019C141.339 172.913 141.507 173.754 141.433 174.541C141.358 175.328 141.09 176.025 140.63 176.632C140.169 177.24 139.557 177.719 138.794 178.069ZM138.435 176.986C139.068 176.695 139.569 176.307 139.94 175.82C140.306 175.322 140.523 174.773 140.591 174.174C140.655 173.564 140.544 172.948 140.258 172.327C139.973 171.705 139.581 171.225 139.082 170.886C138.583 170.547 138.029 170.359 137.418 170.323C136.802 170.275 136.178 170.397 135.545 170.687C134.923 170.972 134.424 171.366 134.048 171.869C133.677 172.356 133.457 172.899 133.389 173.498C133.332 174.093 133.445 174.7 133.731 175.322C134.016 175.944 134.405 176.432 134.898 176.787C135.397 177.126 135.954 177.319 136.57 177.366C137.192 177.398 137.814 177.271 138.435 176.986Z" fill="black"/>
<path d="M149.892 161.056C150.496 160.583 151.118 160.286 151.756 160.167C152.397 160.032 153.03 160.1 153.655 160.373C154.289 160.638 154.888 161.129 155.45 161.848L158.835 166.17L157.829 166.958L154.521 162.735C153.907 161.951 153.247 161.515 152.539 161.429C151.833 161.326 151.126 161.552 150.418 162.107C149.889 162.522 149.511 162.993 149.284 163.521C149.06 164.032 148.998 164.576 149.099 165.152C149.202 165.712 149.475 166.275 149.919 166.842L152.982 170.753L151.976 171.541L146.149 164.101L147.113 163.347L148.711 165.387L148.256 165.127C148.07 164.403 148.119 163.687 148.402 162.978C148.677 162.259 149.174 161.618 149.892 161.056Z" fill="black"/>
<path d="M167.687 157.503C167.184 158.1 166.627 158.595 166.013 158.989C165.391 159.375 164.824 159.611 164.312 159.698L163.911 158.608C164.379 158.5 164.888 158.285 165.44 157.965C165.982 157.637 166.466 157.221 166.89 156.716C167.47 156.027 167.781 155.442 167.825 154.961C167.859 154.473 167.698 154.078 167.339 153.777C167.073 153.553 166.793 153.466 166.499 153.517C166.204 153.551 165.904 153.675 165.599 153.889C165.284 154.095 164.957 154.345 164.616 154.638C164.275 154.931 163.925 155.217 163.566 155.495C163.214 155.764 162.854 155.978 162.484 156.138C162.105 156.29 161.719 156.349 161.324 156.315C160.937 156.271 160.537 156.076 160.124 155.728C159.729 155.396 159.468 154.989 159.341 154.506C159.214 154.023 159.241 153.497 159.422 152.927C159.601 152.341 159.95 151.74 160.467 151.125C160.861 150.657 161.319 150.243 161.842 149.882C162.355 149.514 162.84 149.264 163.297 149.131L163.723 150.218C163.233 150.354 162.787 150.567 162.386 150.857C161.976 151.14 161.617 151.465 161.308 151.832C160.759 152.484 160.468 153.063 160.435 153.568C160.401 154.056 160.558 154.447 160.907 154.741C161.183 154.973 161.468 155.072 161.763 155.038C162.066 154.994 162.379 154.874 162.703 154.675C163.025 154.46 163.353 154.21 163.686 153.926C164.027 153.633 164.377 153.356 164.738 153.094C165.097 152.816 165.462 152.598 165.831 152.438C166.199 152.261 166.577 152.195 166.964 152.238C167.349 152.264 167.74 152.444 168.134 152.776C168.557 153.131 168.824 153.559 168.935 154.061C169.045 154.545 168.998 155.086 168.794 155.683C168.589 156.262 168.219 156.869 167.687 157.503Z" fill="black"/>
<path d="M179.214 139.762L169.502 135.423C168.735 135.081 168.216 134.58 167.945 133.92C167.675 133.26 167.728 132.509 168.105 131.665C168.252 131.336 168.438 131.038 168.662 130.771C168.887 130.503 169.139 130.307 169.418 130.182L170.113 130.965C169.897 131.066 169.707 131.211 169.544 131.401C169.369 131.586 169.226 131.804 169.113 132.056C168.893 132.549 168.861 132.988 169.017 133.374C169.174 133.759 169.52 134.072 170.057 134.311L171.372 134.899L171.929 135.108L179.736 138.595L179.214 139.762ZM170.866 137.886L169.896 137.453L172.282 132.112L173.252 132.545L170.866 137.886Z" fill="black"/>
<path d="M184.424 125.749C184.207 126.635 183.813 127.385 183.243 127.999C182.664 128.598 181.975 129.017 181.176 129.253C180.365 129.487 179.505 129.493 178.596 129.271C177.675 129.045 176.915 128.643 176.315 128.064C175.715 127.485 175.303 126.797 175.078 126.001C174.853 125.205 174.85 124.358 175.07 123.46C175.292 122.551 175.687 121.795 176.254 121.193C176.825 120.579 177.508 120.159 178.304 119.934C179.104 119.697 179.964 119.691 180.884 119.917C181.794 120.139 182.554 120.541 183.165 121.123C183.767 121.691 184.186 122.38 184.42 123.191C184.642 123.999 184.643 124.852 184.424 125.749ZM183.322 125.48C183.485 124.815 183.483 124.191 183.317 123.607C183.14 123.02 182.818 122.515 182.353 122.092C181.88 121.655 181.287 121.35 180.576 121.176C179.854 120.999 179.187 120.996 178.577 121.168C177.969 121.328 177.457 121.629 177.04 122.071C176.612 122.509 176.318 123.055 176.158 123.708C175.998 124.361 176.007 124.981 176.185 125.568C176.351 126.152 176.665 126.661 177.127 127.095C177.589 127.53 178.181 127.835 178.904 128.012C179.615 128.186 180.281 128.188 180.903 128.019C181.513 127.848 182.033 127.542 182.461 127.104C182.878 126.662 183.165 126.121 183.322 125.48Z" fill="black"/>
<path d="M186.656 112.656L177.218 112.176L177.28 110.953L179.851 111.084L179.395 111.187C178.689 110.887 178.167 110.416 177.827 109.773C177.475 109.131 177.323 108.348 177.37 107.425L178.61 107.488C178.608 107.536 178.605 107.584 178.603 107.632C178.588 107.679 178.58 107.727 178.577 107.775C178.527 108.77 178.793 109.564 179.375 110.159C179.946 110.752 180.788 111.078 181.903 111.134L186.721 111.38L186.656 112.656Z" fill="black"/>
<path d="M185.653 90.4391L173.505 93.786L172.253 89.2394C171.969 88.2098 171.893 87.2786 172.024 86.4457C172.144 85.6161 172.462 84.9185 172.979 84.353C173.48 83.7792 174.171 83.3711 175.05 83.1289C175.906 82.893 176.702 82.8914 177.439 83.1242C178.16 83.3486 178.791 83.7848 179.33 84.4328C179.87 85.0807 180.281 85.9195 180.565 86.9492L181.622 90.7843L180.857 90.379L185.299 89.1549L185.653 90.4391ZM180.961 90.3503L180.494 91.0951L179.447 87.2947C179.112 86.0799 178.598 85.2319 177.905 84.7506C177.198 84.261 176.364 84.1484 175.404 84.413C174.432 84.6808 173.768 85.2061 173.411 85.989C173.051 86.7604 173.038 87.7534 173.373 88.9681L174.42 92.7685L173.655 92.3632L180.961 90.3503Z" fill="black"/>
<path d="M177.906 68.8389C178.376 69.7032 178.61 70.5595 178.608 71.4081C178.594 72.2623 178.372 73.046 177.941 73.7592C177.498 74.478 176.866 75.0612 176.044 75.5087C175.222 75.9563 174.4 76.1782 173.579 76.1747C172.751 76.1606 171.992 75.9454 171.301 75.5292C170.593 75.1082 170.03 74.513 169.611 73.7436C169.187 72.9637 168.99 72.1758 169.022 71.38C169.037 70.5793 169.271 69.8301 169.724 69.1323C170.167 68.4403 170.805 67.8676 171.638 67.4144C171.691 67.3857 171.751 67.3594 171.82 67.3355C171.873 67.3068 171.931 67.2753 171.994 67.2409L175.927 74.4657L175.089 74.9218L171.483 68.2977L172.056 68.5597C171.456 68.8867 170.995 69.3082 170.675 69.8241C170.338 70.3352 170.159 70.8839 170.136 71.47C170.114 72.0561 170.26 72.6389 170.576 73.2186C170.886 73.7878 171.296 74.2272 171.806 74.537C172.316 74.8467 172.877 74.999 173.489 74.9938C174.101 74.9885 174.713 74.8195 175.324 74.4867L175.498 74.3921C176.13 74.0478 176.614 73.6067 176.95 73.0688C177.269 72.526 177.431 71.9324 177.436 71.2879C177.424 70.6385 177.243 69.9924 176.893 69.3495C176.617 68.8436 176.272 68.4234 175.858 68.0888C175.438 67.7436 174.957 67.5134 174.416 67.398L174.799 66.3698C175.443 66.4977 176.032 66.7778 176.568 67.2102C177.099 67.632 177.544 68.1749 177.906 68.8389Z" fill="black"/>
<path d="M168.48 54.7962C169.077 55.485 169.462 56.2396 169.633 57.0599C169.788 57.8789 169.731 58.683 169.463 59.4721C169.185 60.2691 168.693 60.9743 167.986 61.5877C167.27 62.209 166.502 62.5969 165.683 62.7515C164.864 62.9062 164.064 62.8452 163.284 62.5688C162.504 62.2924 161.811 61.8052 161.206 61.1073C160.593 60.4003 160.204 59.6412 160.04 58.83C159.869 58.0097 159.921 57.2096 160.198 56.4295C160.466 55.6404 160.958 54.9352 161.675 54.314C162.382 53.7005 163.149 53.3126 163.977 53.1501C164.788 52.9864 165.593 53.0434 166.389 53.321C167.177 53.6065 167.874 54.0982 168.48 54.7962ZM167.623 55.5393C167.175 55.0227 166.664 54.6633 166.092 54.4611C165.51 54.2667 164.912 54.2372 164.299 54.3723C163.668 54.5063 163.077 54.8131 162.524 55.2929C161.962 55.7804 161.575 56.3229 161.362 56.9204C161.142 57.5087 161.091 58.1006 161.211 58.696C161.321 59.2993 161.597 59.8547 162.037 60.3623C162.477 60.8699 162.989 61.2208 163.57 61.4152C164.143 61.6174 164.74 61.6554 165.361 61.5293C165.983 61.4032 166.574 61.0964 167.136 60.6088C167.689 60.1291 168.076 59.5866 168.298 58.9813C168.51 58.3839 168.561 57.7835 168.451 57.1802C168.332 56.5848 168.056 56.0378 167.623 55.5393Z" fill="black"/>
<path d="M155.348 42.3716C156.007 42.853 156.493 43.4386 156.807 44.1283C157.113 44.8277 157.217 45.5801 157.119 46.3854C157.005 47.1933 156.643 48.0139 156.034 48.8471C155.425 49.6804 154.757 50.2696 154.029 50.6148C153.294 50.9696 152.551 51.1025 151.798 51.0135C151.046 50.9245 150.336 50.6358 149.667 50.1473C148.94 49.6164 148.412 48.9773 148.081 48.2302C147.733 47.4857 147.61 46.6976 147.713 45.8658C147.808 45.0438 148.135 44.25 148.694 43.4846C149.261 42.7094 149.921 42.1515 150.675 41.8109C151.429 41.4702 152.218 41.3475 153.04 41.4428C153.852 41.5311 154.621 41.8407 155.348 42.3716ZM161.294 42.5024L153.659 52.9524L152.671 52.2303L154.348 49.9339L155.565 48.4822L156.545 46.8354L160.262 41.7485L161.294 42.5024ZM154.752 43.3404C154.209 42.9439 153.636 42.7111 153.033 42.6418C152.423 42.5823 151.829 42.6833 151.251 42.9449C150.666 43.2163 150.158 43.6475 149.726 44.2385C149.294 44.8296 149.042 45.44 148.968 46.0698C148.894 46.6995 148.979 47.2961 149.221 47.8595C149.463 48.4229 149.855 48.9029 150.398 49.2993C150.941 49.6958 151.522 49.9273 152.142 49.9939C152.753 50.0535 153.347 49.9525 153.924 49.6908C154.492 49.4221 154.992 48.9922 155.424 48.4012C155.855 47.8101 156.117 47.1984 156.207 46.566C156.281 45.9362 156.197 45.3396 155.954 44.7762C155.695 44.2154 155.294 43.7368 154.752 43.3404Z" fill="black"/>
<path d="M143.653 35.1895L137.833 47.2109L136.683 46.654L142.502 34.6326L143.653 35.1895Z" fill="black"/>
<path d="M130.795 29.9356C131.741 30.2073 132.515 30.6419 133.117 31.2395C133.716 31.8486 134.118 32.5571 134.323 33.3651C134.525 34.1846 134.496 35.0442 134.238 35.9438C133.979 36.8434 133.56 37.5845 132.981 38.1672C132.39 38.7465 131.704 39.1362 130.922 39.3362C130.126 39.5444 129.307 39.5275 128.465 39.2856C127.611 39.0404 126.912 38.6273 126.367 38.0463C125.808 37.4736 125.439 36.7807 125.26 35.9678C125.078 35.1665 125.118 34.3102 125.38 33.3991C125.397 33.3414 125.421 33.2796 125.452 33.2138C125.469 33.1561 125.487 33.0927 125.507 33.0235L133.413 35.2948L133.149 36.2117L125.901 34.1292L126.489 33.9051C126.301 34.5625 126.277 35.1864 126.42 35.7767C126.548 36.3752 126.812 36.8882 127.214 37.3157C127.615 37.7432 128.133 38.0481 128.768 38.2303C129.391 38.4092 129.991 38.4258 130.57 38.2799C131.149 38.134 131.651 37.8414 132.077 37.4019C132.503 36.9624 132.812 36.4082 133.004 35.7392L133.059 35.5489C133.258 34.8569 133.283 34.2026 133.136 33.5859C132.974 32.9774 132.665 32.4454 132.209 31.9898C131.738 31.5424 131.151 31.2177 130.447 31.0155C129.894 30.8565 129.352 30.8071 128.823 30.8673C128.282 30.9242 127.781 31.1048 127.319 31.4091L126.855 30.4145C127.398 30.046 128.012 29.8227 128.696 29.7446C129.369 29.6632 130.068 29.7268 130.795 29.9356Z" fill="black"/>
<path d="M46.4404 155.471C46.8382 152.834 50.223 151.988 51.8145 154.129L54.9463 158.342C55.4666 159.042 56.2655 159.48 57.1352 159.544L61.749 159.881C64.6364 160.092 65.5793 163.867 63.1303 165.411L59.2172 167.878C58.4796 168.343 57.9808 169.106 57.8508 169.969L57.068 175.159C56.6702 177.797 53.2854 178.643 51.6939 176.502L48.5621 172.289C48.0418 171.589 47.2429 171.15 46.3732 171.087L41.7594 170.749C38.872 170.538 37.9291 166.764 40.3781 165.22L44.2912 162.752C45.0288 162.287 45.5276 161.524 45.6576 160.662L46.4404 155.471Z" fill="#A9ED53"/>
<path d="M101.983 14.2214C102.062 11.555 105.322 10.3107 107.158 12.2459L110.771 16.054C111.371 16.6866 112.217 17.0267 113.088 16.9858L117.709 16.7689C120.601 16.6332 121.988 20.2678 119.742 22.0937L116.152 25.0114C115.475 25.5613 115.071 26.3785 115.045 27.2501L114.889 32.4972C114.809 35.1637 111.55 36.4079 109.714 34.4728L106.1 30.6647C105.5 30.0321 104.655 29.692 103.784 29.7329L99.1625 29.9497C96.2705 30.0855 94.883 26.4509 97.1298 24.625L100.72 21.7073C101.396 21.1574 101.8 20.3402 101.826 19.4686L101.983 14.2214Z" fill="#A9ED53"/>
</svg>
