<svg width="84" height="69" viewBox="0 0 84 69" fill="none" xmlns="http://www.w3.org/2000/svg">
<path d="M45.66 54V12.24H28.2C25.28 12.24 22.76 12.78 20.64 13.86C18.2 15.1 16.26 16.88 14.82 19.2C13.38 21.48 12.66 24 12.66 26.76C12.66 29.52 13.38 32.06 14.82 34.38C16.22 36.7 18.14 38.48 20.58 39.72C22.66 40.8 25.2 41.34 28.2 41.34H34.74V54H45.66Z" fill="#3D3D3D"/>
<path d="M66.48 54H34.38V12.24H50.64C54.12 12.24 56.96 12.86 59.16 14.1C61.32 15.3 63 16.94 64.2 19.02C65.4 21.1 66 23.4 66 25.92C66 29.04 65.04 31.84 63.12 34.32C61.2 36.76 58.78 38.38 55.86 39.18L66.48 54ZM38.16 14.46L54.48 37.26C57.16 36.7 59.38 35.36 61.14 33.24C62.9 31.12 63.78 28.68 63.78 25.92C63.78 23.72 63.24 21.72 62.16 19.92C61.08 18.12 59.56 16.74 57.6 15.78C55.84 14.9 53.54 14.46 50.7 14.46H38.16ZM36.6 15.9V37.44H52.02L36.6 15.9ZM36.6 51.78H62.28L53.52 39.6L51.66 39.66H36.6V51.78Z" fill="#A9ED53"/>
</svg>
