<svg width="247" height="215" viewBox="0 0 247 215" fill="none" xmlns="http://www.w3.org/2000/svg">
<path d="M134.296 68.6567L134.475 69.7452L135.175 68.893L179.233 15.2923L154.317 77.6508L153.865 78.7826L154.982 78.2944L222.022 48.989L167.29 93.8496L166.243 94.7081L167.597 94.7362L242.204 96.2809L170.212 113.532L168.861 113.856L170.109 114.467L235.351 146.433L162.418 132.16L161.15 131.912L161.921 132.949L202.957 188.145L145.721 145.465L144.799 144.777L144.925 145.92L152.219 211.82L123.954 150.425L123.5 149.439L123.046 150.425L94.781 211.82L102.075 145.92L102.201 144.777L101.279 145.465L44.0431 188.145L85.0788 132.949L85.8499 131.912L84.5815 132.16L11.6491 146.433L76.8911 114.467L78.139 113.856L76.7877 113.532L4.79644 96.2809L79.403 94.7362L80.7571 94.7081L79.7096 93.8496L24.9782 48.989L92.0184 78.2944L93.1352 78.7826L92.683 77.6508L67.7667 15.2923L111.825 68.893L112.525 69.7452L112.704 68.6567L123.5 3.07812L134.296 68.6567Z" fill="#A9ED53" stroke="#3D3D3D"/>
</svg>
