<svg width="85" height="77" viewBox="0 0 85 77" fill="none" xmlns="http://www.w3.org/2000/svg">
<path d="M45.727 2.97616L54.9702 24.9875C55.4763 26.1927 56.4814 27.1183 57.7242 27.5236L81.182 35.1724C84.402 36.2224 84.402 40.7776 81.182 41.8276L57.7242 49.4764C56.4814 49.8817 55.4763 50.8073 54.9702 52.0125L45.727 74.0238C44.5261 76.8837 40.4739 76.8837 39.273 74.0238L30.0298 52.0125C29.5237 50.8073 28.5186 49.8817 27.2758 49.4764L3.81798 41.8276C0.598009 40.7776 0.598013 36.2224 3.81799 35.1724L27.2758 27.5236C28.5186 27.1183 29.5237 26.1927 30.0298 24.9875L39.273 2.97616C40.4739 0.116304 44.5261 0.116305 45.727 2.97616Z" fill="#aeff43" stroke="#3D3D3D"/>
</svg>
